<svg width="20" height="20" viewBox="0 0 20 20" fill="none" xmlns="http://www.w3.org/2000/svg">
<path d="M8.41658 1.8183C9.46243 1.6159 10.5374 1.6159 11.5832 1.8183M11.5832 18.1816C10.5374 18.384 9.46243 18.384 8.41658 18.1816M14.6741 3.1008C15.5586 3.70016 16.3197 4.46403 16.9157 5.3508M1.81824 11.5833C1.61584 10.5374 1.61584 9.46249 1.81824 8.41664M16.8991 14.6741C16.2997 15.5587 15.5359 16.3197 14.6491 16.9158M18.1816 8.41664C18.384 9.46249 18.384 10.5374 18.1816 11.5833M3.10074 5.3258C3.70009 4.44124 4.46397 3.6802 5.35074 3.08414M5.32574 16.8991C4.44118 16.2998 3.68014 15.5359 3.08408 14.6491" stroke="#E4E4E7" stroke-width="1.25" stroke-linecap="round" stroke-linejoin="round"/>
</svg>
