<svg width="20" height="20" viewBox="0 0 20 20" fill="none" xmlns="http://www.w3.org/2000/svg">
<path d="M16.6666 8.33329C16.6666 13.3333 9.99998 18.3333 9.99998 18.3333C9.99998 18.3333 3.33331 13.3333 3.33331 8.33329C3.33331 6.56518 4.03569 4.86949 5.28593 3.61925C6.53618 2.36901 8.23187 1.66663 9.99998 1.66663C11.7681 1.66663 13.4638 2.36901 14.714 3.61925C15.9643 4.86949 16.6666 6.56518 16.6666 8.33329Z" stroke="#E4E4E7" stroke-width="1.25" stroke-linecap="round" stroke-linejoin="round"/>
<path d="M9.99998 10.8333C11.3807 10.8333 12.5 9.714 12.5 8.33329C12.5 6.95258 11.3807 5.83329 9.99998 5.83329C8.61927 5.83329 7.49998 6.95258 7.49998 8.33329C7.49998 9.714 8.61927 10.8333 9.99998 10.8333Z" stroke="#E4E4E7" stroke-width="1.25" stroke-linecap="round" stroke-linejoin="round"/>
</svg>
